<svg version="1.1" id="Layer_1" xmlns="http://www.w3.org/2000/svg" xmlns:xlink="http://www.w3.org/1999/xlink" x="0px" y="0px"
	 width="100%" viewBox="0 0 150 150" enable-background="new 0 0 150 150" xml:space="preserve">
<path fill="#09150E" opacity="1.000000" stroke="none" 
	d="
M98.000000,151.000000 
	C65.333336,151.000000 33.166668,151.000000 1.000000,151.000000 
	C1.000000,101.000000 1.000000,51.000000 1.000000,1.000000 
	C51.000000,1.000000 101.000000,1.000000 151.000000,1.000000 
	C151.000000,51.000000 151.000000,101.000000 151.000000,151.000000 
	C133.500000,151.000000 116.000000,151.000000 98.000000,151.000000 
M133.437683,107.004448 
	C135.862335,107.004448 138.286987,107.004448 140.597076,107.004448 
	C140.597076,83.286064 140.597076,60.240868 140.597076,37.347382 
	C134.003967,37.347382 127.766808,37.347382 121.634216,37.347382 
	C121.634216,51.563915 121.634216,65.428261 121.634216,78.957489 
	C114.116661,66.268433 106.497093,53.316902 98.741852,40.447144 
	C97.904053,39.056839 96.330025,37.232323 95.011452,37.159115 
	C88.769455,36.812546 82.497559,37.004410 76.309143,37.004410 
	C76.309143,60.662060 76.309143,83.712410 76.309143,106.655914 
	C82.849838,106.655914 89.071022,106.655914 94.836594,106.655914 
	C94.836594,92.299751 94.836594,78.293854 94.836594,64.280830 
	C101.181786,75.054756 108.104034,85.427238 113.560005,96.520844 
	C117.732071,105.003891 123.206100,108.822098 133.437683,107.004448 
M17.337763,45.836823 
	C8.024040,55.555817 5.978781,67.275879 7.908363,80.089851 
	C11.513618,104.031616 38.819145,116.378464 59.449665,103.444008 
	C72.796150,95.076340 73.741348,82.171936 72.723900,68.259827 
	C62.418194,68.259827 52.358372,68.259827 42.265667,68.259827 
	C42.265667,72.762405 42.265667,76.992020 42.265667,81.668182 
	C46.323662,81.668182 50.095726,81.668182 53.867790,81.668182 
	C54.213066,82.071892 54.558342,82.475601 54.903618,82.879311 
	C53.299240,85.099503 52.152309,88.027054 50.008656,89.413361 
	C42.124126,94.512283 30.621834,90.702080 28.537310,81.662338 
	C27.138710,75.597168 27.534105,68.802925 28.589069,62.582897 
	C29.503103,57.193787 33.981941,53.869778 39.692204,53.270481 
	C44.926083,52.721188 49.681850,53.561878 52.390949,58.959091 
	C52.758003,59.690365 53.825066,60.515560 54.585617,60.533092 
	C60.300335,60.664829 66.019470,60.604874 71.947769,60.604874 
	C70.874023,52.054527 66.988220,46.201210 60.451633,42.014469 
	C47.194431,33.523113 30.397020,34.832012 17.337763,45.836823 
z"/>
<path fill="#DBE09E" opacity="1.000000" stroke="none" 
	d="
M132.951462,107.004448 
	C123.206100,108.822098 117.732071,105.003891 113.560005,96.520844 
	C108.104034,85.427238 101.181786,75.054756 94.836594,64.280830 
	C94.836594,78.293854 94.836594,92.299751 94.836594,106.655914 
	C89.071022,106.655914 82.849838,106.655914 76.309143,106.655914 
	C76.309143,83.712410 76.309143,60.662060 76.309143,37.004410 
	C82.497559,37.004410 88.769455,36.812546 95.011452,37.159115 
	C96.330025,37.232323 97.904053,39.056839 98.741852,40.447144 
	C106.497093,53.316902 114.116661,66.268433 121.634216,78.957489 
	C121.634216,65.428261 121.634216,51.563915 121.634216,37.347382 
	C127.766808,37.347382 134.003967,37.347382 140.597076,37.347382 
	C140.597076,60.240868 140.597076,83.286064 140.597076,107.004448 
	C138.286987,107.004448 135.862335,107.004448 132.951462,107.004448 
z"/>
<path fill="#DADE9D" opacity="1.000000" stroke="none" 
	d="
M17.597734,45.590149 
	C30.397020,34.832012 47.194431,33.523113 60.451633,42.014469 
	C66.988220,46.201210 70.874023,52.054527 71.947769,60.604874 
	C66.019470,60.604874 60.300335,60.664829 54.585617,60.533092 
	C53.825066,60.515560 52.758003,59.690365 52.390949,58.959091 
	C49.681850,53.561878 44.926083,52.721188 39.692204,53.270481 
	C33.981941,53.869778 29.503103,57.193787 28.589069,62.582897 
	C27.534105,68.802925 27.138710,75.597168 28.537310,81.662338 
	C30.621834,90.702080 42.124126,94.512283 50.008656,89.413361 
	C52.152309,88.027054 53.299240,85.099503 54.903618,82.879311 
	C54.558342,82.475601 54.213066,82.071892 53.867790,81.668182 
	C50.095726,81.668182 46.323662,81.668182 42.265667,81.668182 
	C42.265667,76.992020 42.265667,72.762405 42.265667,68.259827 
	C52.358372,68.259827 62.418194,68.259827 72.723900,68.259827 
	C73.741348,82.171936 72.796150,95.076340 59.449665,103.444008 
	C38.819145,116.378464 11.513618,104.031616 7.908363,80.089851 
	C5.978781,67.275879 8.024040,55.555817 17.597734,45.590149 
z"/>
</svg>